<?xml version="1.0" standalone="no"?>
<svg xmlns="http://www.w3.org/2000/svg" viewBox="0 0 96 68" width="96" height="68"><g fill="#cca131" color="#cca131" transform="translate(25.833 0) scale(1) "><svg width="44.0" height="44.0" x="0.0" y="0.0" viewBox="0 0 44 44"><path fill="currentColor" fill-rule="nonzero" d="M23.77 32.44V14.72h19.49v28.35H.74V32.44h23.03zM.74.55h42.52v10.63H20.23V28.9H.74V.55z"></path></svg></g><path fill="#0a1256" fill-rule="nonzero" d="M0 15.46L0 15.46L0 0.29Q1.94 0 3.91 0L3.91 0Q6.67 0 7.99 1.32L7.99 1.32Q9.02 2.38 9.02 4.10L9.02 4.10Q9.02 5.30 8.29 6.19Q7.56 7.08 6.36 7.37L6.36 7.37L6.36 7.39Q7.82 7.63 8.66 8.72Q9.50 9.82 9.50 11.47L9.50 11.47Q9.50 13.66 7.80 14.78L7.80 14.78Q6.34 15.77 3.91 15.77L3.91 15.77Q2.14 15.77 0 15.46ZM1.78 1.58L1.78 1.58L1.78 6.70L4.27 6.70Q5.57 6.70 6.37 6.04Q7.18 5.38 7.18 4.27L7.18 4.27Q7.18 1.42 3.86 1.42L3.86 1.42Q2.59 1.42 1.78 1.58ZM4.27 8.18L1.78 8.18L1.78 14.18Q2.78 14.33 4.13 14.33L4.13 14.33Q7.61 14.33 7.61 11.45L7.61 11.45Q7.61 9.91 6.73 9.05Q5.86 8.18 4.27 8.18L4.27 8.18ZM18.43 15.77L18.43 15.77Q15.14 15.77 13.32 13.06L13.32 13.06Q11.90 10.94 11.90 7.92L11.90 7.92Q11.90 4.42 13.78 2.16L13.78 2.16Q15.55 0 18.43 0L18.43 0Q21.72 0 23.54 2.74L23.54 2.74Q24.96 4.90 24.96 7.92L24.96 7.92Q24.96 11.42 23.09 13.66L23.09 13.66Q21.31 15.77 18.43 15.77ZM13.80 7.92L13.80 7.92Q13.80 10.94 15.12 12.65L15.12 12.65Q16.34 14.21 18.43 14.21L18.43 14.21Q20.83 14.21 22.06 12.19L22.06 12.19Q23.06 10.54 23.06 7.92L23.06 7.92Q23.06 4.90 21.74 3.17L21.74 3.17Q20.52 1.54 18.43 1.54L18.43 1.54Q16.06 1.54 14.81 3.62L14.81 3.62Q13.80 5.30 13.80 7.92ZM28.32 9.14L28.32 0.29L30.12 0.29L30.12 9.67Q30.12 14.21 33.74 14.21L33.74 14.21Q37.34 14.21 37.34 9.67L37.34 9.67L37.34 0.29L39.17 0.29L39.17 9.14Q39.17 15.77 33.74 15.77L33.74 15.77Q28.32 15.77 28.32 9.14L28.32 9.14ZM43.49 15.46L43.49 15.46L43.49 0.29Q45.43 0 47.40 0L47.40 0Q50.16 0 51.48 1.32L51.48 1.32Q52.51 2.38 52.51 4.10L52.51 4.10Q52.51 5.30 51.78 6.19Q51.05 7.08 49.85 7.37L49.85 7.37L49.85 7.39Q51.31 7.63 52.15 8.72Q52.99 9.82 52.99 11.47L52.99 11.47Q52.99 13.66 51.29 14.78L51.29 14.78Q49.82 15.77 47.40 15.77L47.40 15.77Q45.62 15.77 43.49 15.46ZM45.26 1.58L45.26 1.58L45.26 6.70L47.76 6.70Q49.06 6.70 49.86 6.04Q50.66 5.38 50.66 4.27L50.66 4.27Q50.66 1.42 47.35 1.42L47.35 1.42Q46.08 1.42 45.26 1.58ZM47.76 8.18L45.26 8.18L45.26 14.18Q46.27 14.33 47.62 14.33L47.62 14.33Q51.10 14.33 51.10 11.45L51.10 11.45Q51.10 9.91 50.22 9.05Q49.34 8.18 47.76 8.18L47.76 8.18ZM56.26 15.48L56.26 0.29L65.18 0.29L65.18 1.80L58.03 1.80L58.03 6.82L64.06 6.82L64.06 8.33L58.03 8.33L58.03 13.97L65.50 13.97L65.50 15.48L56.26 15.48ZM70.73 15.48L68.98 15.48L68.98 0.29L70.73 0.29L70.73 6.98L76.34 0.29L78.48 0.29L72.43 7.44L78.72 15.48L76.44 15.48L70.73 7.97L70.73 7.94L70.73 15.48ZM83.16 15.48L81.38 15.48L81.38 0.29Q83.52 0 85.08 0L85.08 0Q90.46 0 90.46 4.61L90.46 4.61Q90.46 7.75 87.77 8.83L87.77 8.83L90.82 15.48L89.02 15.48L86.21 9.26L86.18 9.24Q85.78 9.29 85.18 9.29L85.18 9.29Q84.24 9.29 83.16 9.14L83.16 9.14L83.16 15.48ZM83.16 1.58L83.16 1.58L83.16 7.70Q84.02 7.85 85.08 7.85L85.08 7.85Q88.58 7.85 88.58 4.61L88.58 4.61Q88.58 1.42 85.08 1.42L85.08 1.42Q83.98 1.42 83.16 1.58ZM93.89 0.29L95.66 0.29L95.66 15.48L93.89 15.48L93.89 0.29Z" transform="translate(0, 52)"></path></svg>