<?xml version="1.0" standalone="no"?>
<!DOCTYPE svg PUBLIC "-//W3C//DTD SVG 20010904//EN"
 "http://www.w3.org/TR/2001/REC-SVG-20010904/DTD/svg10.dtd">
<svg version="1.0" xmlns="http://www.w3.org/2000/svg"
 width="1055.000000pt" height="628.000000pt" viewBox="0 0 1055.000000 628.000000"
 preserveAspectRatio="xMidYMid meet">

<g transform="translate(0.000000,628.000000) scale(0.100000,-0.100000)"
fill="#000000" stroke="none">
<path d="M1150 1534 c-14 -3 -44 -7 -67 -10 l-43 -5 0 -684 0 -685 23 -4 c59
-13 213 -26 310 -26 203 0 347 48 437 146 64 71 85 132 85 249 0 177 -77 295
-227 346 l-50 17 58 26 c100 46 157 118 174 220 24 149 -47 298 -172 362 -87
44 -148 54 -333 53 -93 -1 -181 -3 -195 -5z m417 -150 c43 -22 65 -41 88 -78
27 -45 30 -57 30 -136 0 -76 -3 -91 -26 -126 -16 -23 -48 -51 -80 -69 -53 -29
-58 -30 -217 -33 l-162 -4 2 234 3 233 35 7 c19 4 88 5 153 4 107 -3 123 -6
174 -32z m1 -604 c100 -44 162 -145 162 -265 0 -115 -48 -197 -140 -239 -35
-16 -71 -21 -163 -24 -65 -2 -143 -1 -173 3 l-54 6 0 276 0 275 158 -4 c136
-4 164 -7 210 -28z"/>
<path d="M2551 1524 c-161 -43 -301 -182 -377 -377 -82 -209 -70 -497 31 -703
103 -213 279 -324 509 -324 220 1 401 117 501 324 57 117 75 192 82 346 4 104
1 143 -16 230 -54 260 -212 451 -416 505 -74 19 -241 19 -314 -1z m324 -153
c111 -55 189 -162 232 -321 22 -83 25 -347 4 -430 -39 -156 -125 -276 -234
-326 -56 -26 -72 -29 -167 -29 -99 0 -110 2 -171 32 -78 39 -136 97 -178 180
-53 107 -65 170 -66 353 0 146 3 174 23 240 33 103 66 164 120 222 80 86 168
120 296 114 62 -3 91 -11 141 -35z"/>
<path d="M5095 1533 c-16 -2 -49 -6 -72 -9 l-43 -5 0 -684 0 -685 23 -5 c54
-12 211 -25 317 -25 200 0 339 47 430 146 57 62 82 123 88 214 11 185 -77 334
-225 380 -46 15 -54 20 -38 26 67 24 88 37 128 73 63 59 92 127 91 221 0 99
-24 167 -81 230 -91 101 -187 131 -423 129 -91 -1 -178 -4 -195 -6z m411 -149
c81 -41 115 -97 122 -198 6 -93 -19 -152 -82 -195 -61 -42 -105 -51 -264 -51
l-142 0 2 232 3 233 30 7 c17 4 85 6 152 4 112 -2 125 -4 179 -32z m1 -603
c113 -50 169 -152 161 -292 -6 -106 -39 -161 -123 -204 -54 -27 -69 -30 -177
-34 -66 -2 -144 0 -174 4 l-54 6 0 276 0 275 158 -4 c136 -4 164 -7 209 -27z"/>
<path d="M8535 1533 c-16 -2 -49 -6 -72 -9 l-43 -5 0 -685 0 -684 75 0 75 0 0
279 c0 154 3 281 8 283 4 2 68 1 142 -2 l135 -5 125 -277 125 -278 78 0 c70 0
78 2 73 18 -3 9 -64 143 -135 297 l-128 280 41 22 c149 78 227 252 197 435
-30 184 -129 288 -309 327 -48 10 -314 13 -387 4z m383 -143 c103 -45 145
-119 146 -260 1 -85 -2 -101 -28 -153 -31 -64 -86 -108 -161 -129 -43 -12
-250 -14 -285 -3 -20 6 -20 11 -18 283 l3 277 35 7 c19 3 85 5 145 4 89 -2
120 -7 163 -26z"/>
<path d="M3612 1028 c4 -441 6 -500 22 -558 67 -235 219 -350 461 -350 252 1
400 114 467 358 20 72 22 107 26 560 l4 482 -81 0 -81 0 0 -412 c-1 -447 -8
-576 -39 -659 -45 -118 -133 -180 -267 -187 -192 -10 -309 81 -344 267 -6 31
-10 251 -10 522 l0 469 -81 0 -80 0 3 -492z"/>
<path d="M6140 835 l0 -685 415 0 415 0 0 65 0 65 -335 0 -335 0 0 255 0 255
270 0 270 0 0 70 0 70 -270 0 -270 0 0 230 0 230 320 0 320 0 0 65 0 65 -400
0 -400 0 0 -685z"/>
<path d="M7290 835 l0 -685 80 0 80 0 2 336 3 336 40 -54 c22 -29 137 -181
255 -336 l214 -282 98 0 c54 0 98 2 98 4 0 3 -124 163 -275 357 -152 194 -275
358 -273 365 2 7 120 150 263 319 143 169 262 311 263 316 2 5 -39 9 -91 9
-53 0 -97 -4 -99 -9 -1 -5 -113 -140 -248 -301 l-245 -292 -3 301 -2 301 -80
0 -80 0 0 -685z"/>
<path d="M9550 835 l0 -685 80 0 80 0 0 685 0 685 -80 0 -80 0 0 -685z"/>
</g>
</svg>
