<?xml version="1.0" standalone="no"?>
<!DOCTYPE svg PUBLIC "-//W3C//DTD SVG 20010904//EN"
 "http://www.w3.org/TR/2001/REC-SVG-20010904/DTD/svg10.dtd">
<svg version="1.0" xmlns="http://www.w3.org/2000/svg"
 width="1280.000000pt" height="640.000000pt" viewBox="0 0 1280.000000 640.000000"
 preserveAspectRatio="xMidYMid meet">

<g transform="translate(0.000000,640.000000) scale(0.100000,-0.100000)"
fill="#000000" stroke="none">
<path d="M5055 5670 c-737 -264 -1344 -481 -1349 -483 -14 -5 400 -3577 416
-3592 17 -16 2275 -1265 2286 -1265 5 0 85 42 178 94 1735 960 2110 1168 2115
1174 6 6 38 278 179 1512 28 239 54 471 60 515 9 72 115 987 140 1210 5 50 17
148 25 219 8 71 14 130 13 131 -2 2 -403 145 -893 320 -489 174 -1097 391
-1350 481 -252 90 -464 164 -470 163 -5 0 -613 -216 -1350 -479z m2204 -2068
c463 -1040 841 -1894 841 -1897 0 -3 -143 -5 -318 -5 l-318 0 -170 425 -169
425 -720 0 -720 0 -169 -425 -170 -425 -318 0 c-175 0 -318 3 -318 7 0 21
1695 3802 1701 3796 4 -5 386 -860 848 -1901z"/>
<path d="M6168 3687 c-131 -315 -240 -579 -243 -587 -5 -13 54 -15 485 -15
269 0 489 3 488 6 -2 3 -110 264 -242 580 -131 316 -241 577 -245 581 -3 4
-113 -251 -243 -565z"/>
</g>
</svg>
