<?xml version="1.0" standalone="no"?>
<!DOCTYPE svg PUBLIC "-//W3C//DTD SVG 20010904//EN"
 "http://www.w3.org/TR/2001/REC-SVG-20010904/DTD/svg10.dtd">
<svg version="1.0" xmlns="http://www.w3.org/2000/svg"
 width="735.000000pt" height="380.000000pt" viewBox="0 0 735.000000 380.000000"
 preserveAspectRatio="xMidYMid meet">

<g transform="translate(0.000000,380.000000) scale(0.100000,-0.100000)"
fill="#000000" stroke="none">
<path d="M3525 3559 c-78 -12 -148 -35 -210 -72 -111 -65 -1383 -922 -1419
-956 -109 -102 -110 -249 -2 -357 l53 -53 -44 -43 c-119 -115 -122 -251 -7
-365 l52 -53 -37 -29 c-46 -36 -89 -114 -97 -174 -9 -63 18 -136 69 -192 26
-27 294 -214 705 -490 364 -244 681 -457 705 -472 158 -99 394 -118 576 -45
38 15 170 96 311 191 966 649 1140 768 1178 804 57 55 82 110 82 178 0 69 -35
143 -91 194 l-41 36 52 55 c61 65 80 106 80 177 0 68 -37 144 -92 192 l-41 34
55 59 c105 114 105 244 0 347 -57 55 -1405 958 -1482 993 -57 25 -199 53 -260
51 -19 -1 -62 -5 -95 -10z m90 -694 c163 -43 259 -155 224 -263 -6 -20 -18
-44 -26 -53 -11 -14 -1 -12 53 8 127 46 259 41 372 -15 199 -97 232 -261 79
-398 -28 -25 -151 -113 -273 -194 l-221 -149 -514 345 c-283 190 -518 349
-522 353 -10 10 370 270 463 318 120 60 251 77 365 48z"/>
<path d="M3395 2736 c-58 -18 -94 -39 -237 -134 -71 -47 -125 -89 -121 -92 5
-4 79 -54 165 -112 l157 -105 118 78 c132 88 207 161 217 209 22 110 -154 202
-299 156z"/>
<path d="M3862 2450 c-30 -10 -75 -31 -100 -46 -47 -27 -259 -169 -276 -184
-4 -5 73 -62 172 -128 l180 -121 148 100 c248 165 288 236 187 331 -71 68
-201 88 -311 48z"/>
</g>
</svg>
