<?xml version="1.0" standalone="no"?>
<!DOCTYPE svg PUBLIC "-//W3C//DTD SVG 20010904//EN"
 "http://www.w3.org/TR/2001/REC-SVG-20010904/DTD/svg10.dtd">
<svg version="1.0" xmlns="http://www.w3.org/2000/svg"
 width="1280.000000pt" height="720.000000pt" viewBox="0 0 1280.000000 720.000000"
 preserveAspectRatio="xMidYMid meet">

<g transform="translate(0.000000,720.000000) scale(0.100000,-0.100000)"
fill="#000000" stroke="none">
<path d="M5642 4065 c-38 -17 -56 -56 -47 -102 7 -41 38 -63 88 -63 96 0 121
128 32 165 -40 18 -32 18 -73 0z"/>
<path d="M4920 3550 l0 -510 60 0 60 0 0 220 0 220 215 0 215 0 0 60 0 60
-215 0 -215 0 0 170 0 170 240 0 240 0 0 60 0 60 -300 0 -300 0 0 -510z"/>
<path d="M7080 3550 l0 -510 60 0 60 0 0 52 0 53 30 -37 c76 -92 236 -121 354
-63 184 91 252 338 147 542 -29 57 -112 128 -179 153 -44 17 -72 21 -122 17
-78 -5 -129 -27 -183 -79 -22 -21 -42 -38 -44 -38 -1 0 -3 95 -3 210 l0 210
-60 0 -60 0 0 -510z m465 60 c82 -51 128 -174 106 -283 -24 -115 -96 -185
-201 -194 -80 -8 -138 15 -188 72 -45 51 -62 100 -62 180 0 32 5 75 12 97 14
48 78 122 121 142 64 30 151 24 212 -14z"/>
<path d="M6205 3749 c-78 -10 -138 -50 -173 -114 -9 -16 -11 -9 -12 43 l0 62
-60 0 -60 0 0 -350 0 -350 60 0 60 0 0 203 c0 115 5 219 11 242 25 92 108 151
200 143 46 -5 48 -4 59 26 7 17 17 41 23 53 6 13 8 25 5 28 -13 14 -68 20
-113 14z"/>
<path d="M6555 3754 c-52 -14 -129 -61 -162 -98 -19 -22 -49 -70 -66 -106 -28
-59 -30 -74 -30 -166 0 -92 3 -107 30 -167 38 -79 99 -141 173 -175 47 -21 69
-25 150 -25 103 1 137 11 207 62 49 35 101 107 87 120 -5 5 -30 18 -55 29
l-46 20 -17 -29 c-66 -111 -245 -123 -342 -21 -31 32 -64 104 -64 138 l0 24
281 0 282 0 -6 63 c-13 156 -99 282 -215 317 -42 13 -176 22 -207 14z m162
-120 c49 -10 123 -96 123 -144 0 -20 -5 -20 -206 -20 l-206 0 7 28 c7 31 50
87 87 115 42 31 110 38 195 21z"/>
<path d="M8058 3747 c-48 -13 -133 -79 -132 -100 1 -9 -2 -15 -6 -12 -5 3 -16
-5 -24 -17 -16 -22 -15 -23 42 -49 l57 -26 20 28 c52 73 175 94 260 45 46 -28
85 -91 85 -139 0 -32 2 -32 -52 -10 -53 21 -203 24 -268 5 -62 -18 -136 -74
-160 -122 -14 -28 -20 -59 -20 -108 0 -62 4 -75 33 -118 48 -73 115 -104 224
-104 64 0 94 5 128 21 43 20 95 70 95 90 0 5 5 9 10 9 6 0 10 -22 10 -50 l0
-50 60 0 60 0 0 220 c0 120 -5 243 -11 272 -22 105 -73 164 -178 205 -62 24
-167 29 -233 10z m262 -386 c43 -20 48 -46 20 -101 -41 -81 -118 -129 -205
-130 -58 0 -114 25 -133 61 -19 35 -9 105 19 135 27 29 71 51 114 57 50 7 148
-5 185 -22z"/>
<path d="M8736 3740 c-109 -43 -156 -100 -156 -190 0 -63 24 -107 77 -142 48
-31 58 -35 173 -64 52 -13 107 -29 122 -35 33 -13 58 -64 51 -102 -11 -58
-103 -97 -186 -78 -62 14 -94 36 -127 87 l-26 42 -39 -19 c-21 -11 -45 -19
-52 -19 -21 0 -15 -30 14 -68 78 -102 141 -134 268 -135 78 -1 98 3 146 26 72
34 114 81 128 145 18 84 -15 161 -88 206 -39 24 -75 36 -186 62 -95 22 -131
40 -145 75 -10 24 -10 33 4 54 29 45 64 60 136 59 73 -1 117 -19 147 -60 l20
-27 47 18 c26 10 49 22 52 27 6 9 -31 65 -61 91 -74 64 -220 86 -319 47z"/>
<path d="M9419 3736 c-86 -35 -133 -78 -177 -161 -34 -65 -42 -103 -42 -194 0
-161 64 -269 199 -337 49 -24 66 -27 150 -27 74 1 107 5 143 21 55 24 119 79
147 127 l20 34 -46 21 c-25 11 -49 20 -54 20 -5 0 -27 -20 -50 -44 -111 -121
-310 -78 -369 81 -34 90 -55 83 260 83 l280 0 0 55 c0 70 -32 168 -73 222 -84
110 -256 154 -388 99z m221 -112 c51 -28 92 -77 104 -126 l6 -28 -210 0 -211
0 6 23 c10 33 56 97 87 120 49 36 160 42 218 11z"/>
<path d="M5620 3390 l0 -350 60 0 60 0 0 350 0 350 -60 0 -60 0 0 -350z"/>
</g>
</svg>
