<?xml version="1.0" standalone="no"?>
<!DOCTYPE svg PUBLIC "-//W3C//DTD SVG 20010904//EN"
 "http://www.w3.org/TR/2001/REC-SVG-20010904/DTD/svg10.dtd">
<svg version="1.0" xmlns="http://www.w3.org/2000/svg"
 width="910.000000pt" height="548.000000pt" viewBox="0 0 910.000000 548.000000"
 preserveAspectRatio="xMidYMid meet">

<g transform="translate(0.000000,548.000000) scale(0.100000,-0.100000)"
fill="#000000" stroke="none">
<path d="M6975 4634 c-48 -15 -106 -51 -133 -84 -7 -8 -25 -40 -40 -70 -23
-48 -26 -67 -26 -150 0 -101 17 -158 68 -225 56 -73 198 -115 322 -95 120 19
192 71 238 170 30 66 30 235 -1 301 -29 64 -90 123 -149 143 -69 25 -216 30
-279 10z"/>
<path d="M1795 4621 c-25 -11 -111 -88 -226 -203 l-187 -186 195 -193 c107
-107 205 -203 217 -215 18 -18 31 -20 84 -16 34 2 83 -1 109 -8 65 -16 143
-78 179 -142 26 -48 29 -62 29 -148 l0 -95 183 -185 c102 -102 189 -184 194
-182 5 1 7 -2 4 -7 -12 -18 18 -25 113 -25 79 -1 103 -5 138 -24 173 -92 217
-309 92 -455 -86 -100 -220 -128 -351 -73 -110 47 -181 192 -157 322 l10 56
-190 192 -191 191 0 -511 0 -510 40 -30 c49 -35 96 -103 111 -158 26 -94 -12
-232 -79 -292 -90 -80 -218 -100 -325 -51 -30 14 -58 23 -61 21 -3 -2 -4 -1
-1 2 2 4 -15 28 -39 55 -50 56 -72 118 -69 200 2 61 33 147 64 175 10 9 16 22
12 28 -3 6 -2 8 2 3 5 -4 17 0 27 10 10 9 28 21 41 27 l22 12 3 522 c2 491 1
523 -15 529 -10 3 -28 15 -40 26 -12 11 -27 16 -34 12 -8 -5 -10 -4 -5 4 4 6
-4 25 -19 43 -50 59 -71 154 -54 237 l11 54 -173 173 c-95 95 -177 170 -183
167 -6 -3 -8 -2 -3 2 7 9 -50 75 -65 75 -4 0 -268 -261 -587 -581 -540 -540
-581 -584 -601 -637 -25 -64 -23 -128 5 -184 21 -40 1718 -1743 1760 -1765 37
-20 66 -26 126 -26 50 -1 112 20 103 34 -3 5 2 6 10 3 22 -8 1721 1693 1747
1749 33 73 24 169 -23 241 -7 11 -394 402 -860 868 -685 685 -856 852 -894
868 -58 25 -145 26 -199 1z"/>
<path d="M8107 4240 c-17 -154 -71 -297 -147 -382 -50 -58 -155 -112 -255
-131 l-70 -14 -3 -161 -2 -162 139 0 140 0 3 -572 c4 -554 5 -576 26 -653 63
-226 206 -325 497 -341 182 -10 367 22 563 98 82 32 102 43 98 56 -3 10 -24
78 -47 152 -22 74 -44 138 -48 142 -4 5 -52 -4 -106 -18 -82 -21 -118 -25
-200 -22 -109 4 -150 19 -187 69 -43 57 -48 117 -48 617 l0 472 270 0 270 0 0
180 0 180 -254 0 c-140 0 -261 3 -270 6 -14 5 -16 39 -16 275 l0 269 -174 0
-173 0 -6 -60z"/>
<path d="M5297 3709 c-220 -18 -401 -92 -521 -213 -116 -116 -172 -250 -183
-431 -14 -239 74 -444 237 -553 l65 -44 -135 -136 c-161 -162 -185 -203 -185
-307 0 -54 6 -81 24 -118 21 -43 78 -98 114 -110 7 -2 -9 -27 -37 -58 -113
-125 -153 -225 -143 -353 18 -210 174 -332 502 -392 145 -27 620 -27 749 -1
330 67 532 203 615 414 48 124 46 330 -5 443 -34 75 -67 115 -127 155 -145 95
-318 124 -992 166 -99 6 -182 12 -184 14 -2 2 23 45 54 95 56 89 59 92 89 85
231 -47 517 -20 686 65 216 109 325 274 337 510 8 146 -19 245 -97 360 l-30
45 93 7 c50 4 125 10 165 14 l72 6 0 154 0 154 -352 0 c-259 0 -373 4 -432 14
-107 19 -258 25 -379 15z m293 -375 c39 -12 66 -29 104 -67 68 -68 90 -134 84
-250 -5 -96 -25 -144 -84 -203 -61 -62 -136 -88 -254 -88 -115 -1 -185 20
-243 73 -62 56 -87 119 -87 223 0 147 50 242 154 293 95 47 211 53 326 19z
m-215 -1664 c321 -22 373 -27 427 -42 93 -27 121 -129 56 -203 -64 -73 -162
-102 -378 -111 -339 -15 -521 51 -520 188 1 61 74 188 109 188 9 0 147 -9 306
-20z"/>
<path d="M6670 3703 c-1 -5 -9 -69 -20 -143 -10 -74 -16 -138 -12 -141 4 -4
51 -21 105 -39 53 -17 104 -38 112 -47 13 -12 15 -95 15 -592 0 -452 -3 -581
-13 -589 -6 -6 -50 -15 -97 -21 -145 -19 -130 0 -130 -161 l0 -140 515 0 515
0 0 139 c0 158 8 145 -95 156 -87 10 -132 23 -139 41 -3 9 -6 360 -6 780 l0
764 -375 0 c-206 0 -375 -3 -375 -7z"/>
</g>
</svg>
