<?xml version="1.0" standalone="no"?>
<!DOCTYPE svg PUBLIC "-//W3C//DTD SVG 20010904//EN"
 "http://www.w3.org/TR/2001/REC-SVG-20010904/DTD/svg10.dtd">
<svg version="1.0" xmlns="http://www.w3.org/2000/svg"
 width="512.000000pt" height="336.000000pt" viewBox="0 0 512.000000 336.000000"
 preserveAspectRatio="xMidYMid meet">

<g transform="translate(0.000000,336.000000) scale(0.100000,-0.100000)"
fill="#000000" stroke="none">
<path d="M2495 2785 c-5 -3 -64 -11 -130 -20 -66 -9 -154 -20 -195 -26 -41 -5
-124 -16 -185 -24 -60 -8 -162 -21 -225 -30 -157 -21 -334 -45 -337 -45 -2 0
-3 -352 -3 -783 l0 -783 168 -22 c92 -13 282 -39 422 -58 140 -19 307 -42 370
-50 63 -8 121 -17 128 -19 9 -3 12 16 12 75 l0 79 308 3 c332 3 330 3 370 60
15 21 17 87 20 678 2 360 0 675 -3 699 -5 32 -16 54 -40 78 l-33 33 -311 0
-311 0 0 80 c0 77 -2 83 -25 75z m644 -241 c21 -26 21 -34 21 -683 0 -509 -3
-662 -13 -681 l-13 -25 -307 -3 -307 -2 0 710 0 710 299 0 300 0 20 -26z
m-1114 -444 c57 -28 95 -97 95 -171 0 -62 -27 -129 -60 -152 -22 -15 -22 -16
19 -27 22 -6 41 -15 41 -20 0 -17 -23 -60 -32 -60 -5 0 -42 13 -81 29 -40 16
-86 32 -102 36 -86 17 -135 84 -135 184 0 72 9 98 50 145 50 57 132 71 205 36z
m245 -135 l0 -154 78 -3 77 -3 0 -40 c0 -37 -2 -40 -27 -39 -16 0 -73 1 -128
2 l-100 2 0 195 0 195 50 0 50 0 0 -155z m-562 137 c8 -6 10 -19 6 -41 -7 -31
-8 -32 -45 -26 -96 16 -107 -32 -17 -78 109 -55 115 -153 11 -206 -28 -14 -91
-14 -132 0 -29 10 -32 14 -25 43 8 41 8 40 45 27 44 -15 74 -14 90 5 18 22 3
42 -57 74 -33 18 -55 38 -67 62 -16 33 -17 40 -3 72 20 48 68 76 131 76 28 0
56 -4 63 -8z"/>
<path d="M2693 2090 c-48 -10 -98 -34 -110 -52 -4 -7 -8 -100 -10 -207 l-2
-194 28 -28 c42 -42 126 -62 230 -56 103 6 149 19 185 52 l26 24 -3 199 c-2
219 -3 222 -66 248 -43 18 -218 27 -278 14z m-18 -155 c103 -26 286 -12 332
27 22 18 17 -65 -5 -85 -73 -66 -285 -73 -375 -13 -27 18 -33 29 -35 66 -3 36
-1 42 10 32 8 -6 41 -18 73 -27z m0 -126 c84 -31 280 -18 318 20 21 21 28 11
25 -31 -2 -35 -9 -46 -36 -64 -82 -56 -291 -52 -366 7 -20 16 -26 29 -26 61 0
34 2 39 18 33 9 -5 40 -16 67 -26z m58 -140 c87 -15 200 -1 255 31 l32 19 0
-43 c0 -52 -15 -68 -88 -91 -74 -24 -230 -17 -288 13 -46 23 -54 37 -54 89 l0
35 34 -20 c19 -11 68 -26 109 -33z"/>
<path d="M1922 2042 c-64 -10 -87 -160 -33 -215 28 -29 80 -25 108 7 19 22 23
39 23 90 0 89 -33 128 -98 118z"/>
</g>
</svg>
